<?xml version="1.0" encoding="UTF-8" standalone="no"?>
<!-- Created with Inkscape (http://www.inkscape.org/) -->

<svg
   width="68.663391mm"
   height="12.435417mm"
   viewBox="0 0 68.663391 12.435417"
   version="1.1"
   id="svg1"
   sodipodi:docname="logo.svg"
   inkscape:version="1.3.2 (091e20e, 2023-11-25)"
   xmlns:inkscape="http://www.inkscape.org/namespaces/inkscape"
   xmlns:sodipodi="http://sodipodi.sourceforge.net/DTD/sodipodi-0.dtd"
   xmlns="http://www.w3.org/2000/svg"
   xmlns:svg="http://www.w3.org/2000/svg">
  <sodipodi:namedview
     id="namedview1"
     pagecolor="#ffffff"
     bordercolor="#666666"
     borderopacity="1.0"
     inkscape:showpageshadow="2"
     inkscape:pageopacity="0.0"
     inkscape:pagecheckerboard="0"
     inkscape:deskcolor="#d1d1d1"
     inkscape:document-units="mm"
     inkscape:zoom="0.96875503"
     inkscape:cx="397.41729"
     inkscape:cy="626.06127"
     inkscape:current-layer="layer1"
     showguides="false">
    <sodipodi:guide
       position="75.705698,296.74657"
       orientation="0,-1"
       id="guide1"
       inkscape:locked="false" />
    <sodipodi:guide
       position="44.08412,277.72234"
       orientation="0,-1"
       id="guide2"
       inkscape:locked="false" />
  </sodipodi:namedview>
  <defs
     id="defs1" />
  <g
     id="layer1"
     transform="translate(-54.276132,-136.03689)">
    <g
       id="g1"
       transform="matrix(0.64367376,0,0,0.64367376,19.34001,48.473513)"
       style="fill:#ffffff;fill-opacity:1;stroke-width:1.55358">
      <path
         class="st3"
         d="m 54.276132,139.64506 v 12.37064 c 0,0 3.005305,-3.18001 7.226717,-3.87193 0,0 -0.75483,4.2773 -3.87195,7.17078 h 12.433577 c 0,0 -3.298845,-3.12412 -3.816044,-7.17078 0,0 3.816044,0.51719 7.17081,3.76012 v -12.25883 c 0,0 -2.949397,3.12412 -7.226717,3.76012 0,0 0.691921,-3.99075 3.816043,-7.11486 H 57.686806 c 0,0 3.235951,3.12411 3.816043,7.22669 0,0 -3.990768,-0.58009 -7.226717,-3.87195 z"
         id="path104"
         style="display:inline;fill:#ffffff;fill-opacity:1;stroke-width:0.141173" />
      <path
         id="path105"
         style="color:#000000;-inkscape-font-specification:'Raleway Semi-Bold';display:inline;fill:#ffffff;fill-opacity:1;stroke-width:3.66336;-inkscape-stroke:none"
         d="m 114.0702,136.03689 v 0.15722 0.18399 l 0.0235,0.11236 -0.0235,0.0848 v 3.14992 c -0.21401,-0.26759 -0.41797,-0.5443 -0.72867,-0.74085 -0.43423,-0.28045 -0.92501,-0.41919 -1.46347,-0.41919 -0.61617,0 -1.17067,0.16834 -1.64868,0.50203 -0.47343,0.32233 -0.8506,0.76415 -1.12471,1.31237 -0.26685,0.54256 -0.4009,1.14577 -0.4009,1.80587 0,0.48587 0.0801,0.95005 0.24005,1.38547 0.168,0.43333 0.39755,0.82344 0.69092,1.16127 h 0.005 c 0.30318,0.33885 0.65632,0.60417 1.05891,0.79205 0.41318,0.18864 0.86476,0.28026 1.34527,0.28026 0.49447,0 0.97152,-0.11718 1.4269,-0.35826 l 0.005,-0.005 c 0.33767,-0.18539 0.5704,-0.48001 0.80667,-0.77376 l 0.005,0.1425 c 0.0104,0.25618 0.12951,0.48665 0.3351,0.66288 v 0.005 c 0.21554,0.17635 0.48359,0.26685 0.77864,0.26685 0.16098,0 0.37264,-0.025 0.64095,-0.0683 l 0.13275,-0.0196 v -1.41348 l -0.14747,-0.008 c -0.11155,-0.007 -0.162,-0.0359 -0.18399,-0.0609 -0.0189,-0.0215 -0.0512,-0.0972 -0.0512,-0.23884 v -7.89854 z m -14.743048,2.65298 v 0.15209 1.1515 h 3.643418 l -3.785992,4.58657 v 1.10034 h 5.848962 v -1.31725 h -3.78963 l 3.75308,-4.58655 v -1.09669 z m 46.944058,-2.65298 v 0.15722 7.90706 c 0,0.50719 0.15037,0.93384 0.45574,1.23928 0.30602,0.29645 0.72801,0.4411 1.23438,0.4411 0.23552,0 0.49768,-0.03 0.78716,-0.0913 0.28831,-0.0611 0.54402,-0.13532 0.76037,-0.22543 l 0.11581,-0.0512 -0.2632,-1.44153 -0.18886,0.0878 c -0.0969,0.0447 -0.21775,0.0823 -0.36312,0.11456 -0.13123,0.0308 -0.27785,0.0464 -0.43746,0.0464 -0.12095,0 -0.20366,-0.0294 -0.27661,-0.0963 -0.031,-0.0283 -0.10114,-0.21035 -0.10114,-0.53493 v -7.55248 z m -63.735473,0.20226 c -0.709978,0 -1.351441,0.13499 -1.920418,0.41065 -0.564136,0.26445 -1.048603,0.62728 -1.446404,1.08694 -0.386988,0.44857 -0.6811,0.9519 -0.88343,1.50612 -0.202159,0.5449 -0.304634,1.10777 -0.304634,1.68034 0,0.59042 0.108635,1.17592 0.32778,1.7547 h 0.0035 c 0.219233,0.56995 0.52662,1.08766 0.921222,1.55243 v 0.005 c 0.396449,0.45813 0.869523,0.82384 1.414721,1.10522 v 0.005 c 0.550997,0.2755 1.162214,0.4094 1.822921,0.4094 0.494903,0 0.992338,-0.0818 1.492698,-0.24857 0.509889,-0.16697 0.970884,-0.41609 1.376947,-0.74208 0.419819,-0.3305 0.732013,-0.73853 0.929741,-1.21489 l 0.05611,-0.12916 -1.464675,-0.83348 -0.07442,0.16081 c -0.144558,0.3372 -0.337394,0.60626 -0.588549,0.81033 -0.249547,0.20124 -0.523524,0.34614 -0.820081,0.44233 -0.301537,0.0979 -0.585967,0.14747 -0.856624,0.14747 -0.40319,0 -0.769923,-0.0859 -1.105212,-0.25346 -0.339311,-0.16971 -0.629232,-0.39507 -0.879786,-0.68603 -0.242944,-0.29964 -0.432426,-0.63914 -0.571493,-1.02236 v -0.005 c -0.137887,-0.39083 -0.21203,-0.79155 -0.21203,-1.20637 0,-0.37545 0.06057,-0.7507 0.175471,-1.12835 0.121805,-0.37378 0.294557,-0.7095 0.520307,-1.00895 l 0.0051,-0.005 c 0.232695,-0.29542 0.515429,-0.53302 0.851745,-0.70917 0.331338,-0.18147 0.724485,-0.27661 1.179545,-0.27661 0.273823,0 0.553325,0.0429 0.838352,0.1242 0.284515,0.079 0.542924,0.216 0.782309,0.41551 v 0.003 c 0.242071,0.19522 0.445958,0.46303 0.608052,0.81155 l 0.07801,0.16937 1.396434,-0.9395 -0.0609,-0.1242 c -0.303367,-0.60637 -0.772129,-1.10319 -1.390342,-1.48295 -0.62321,-0.39068 -1.361654,-0.5849 -2.201907,-0.5849 z m 45.658513,0.0512 v 0.16081 9.22919 h 1.75102 v -6.00005 l 2.42612,4.43911 h 1.03697 l 2.4127,-4.43546 v 5.9964 h 1.76443 v -9.39003 h -1.7876 l -2.90984,5.37008 -2.90622,-5.37008 z m 22.21268,0.19375 v 0.15602 2.04104 h -0.87979 v 1.40375 h 0.87979 v 4.0163 c 0,0.37914 0.079,0.70599 0.2437,0.96751 v 0.005 h 0.005 c 0.16971,0.24513 0.39414,0.43024 0.66775,0.54347 0.26737,0.11074 0.56284,0.16577 0.87126,0.16577 0.24991,0 0.48901,-0.0289 0.7226,-0.0829 0.23565,-0.0523 0.44796,-0.11363 0.63607,-0.18522 0.18269,-0.0697 0.33514,-0.13463 0.4606,-0.19742 l 0.11468,-0.0547 -0.37776,-1.42813 -0.17426,0.0878 c -0.0765,0.0382 -0.20667,0.0937 -0.38261,0.1608 -0.15995,0.0609 -0.32411,0.0878 -0.50202,0.0878 -0.16424,0 -0.28945,-0.0437 -0.39605,-0.12916 h -0.005 c -0.0874,-0.0777 -0.14233,-0.19682 -0.15721,-0.39604 v -3.56055 h 1.45615 v -1.40381 h -1.45615 v -2.19701 z m -29.94429,2.08127 c -0.7231,0 -1.36526,0.17128 -1.91189,0.5118 -0.54066,0.3286 -0.96901,0.77033 -1.27093,1.32089 -0.30283,0.54332 -0.45085,1.14623 -0.45085,1.80098 0,0.48673 0.0832,0.95062 0.25223,1.38671 v 0.005 c 0.17772,0.42654 0.42754,0.80947 0.74697,1.14665 h 0.005 c 0.32085,0.32976 0.69766,0.59215 1.13201,0.78717 l 0.005,0.005 c 0.44713,0.18778 0.94031,0.27661 1.47807,0.27661 0.48477,0 0.93956,-0.0751 1.35868,-0.22666 0.41586,-0.15927 0.78188,-0.37058 1.08692,-0.63973 0.31284,-0.2771 0.55075,-0.5935 0.70552,-0.9395 l 0.073,-0.16577 -1.5195,-0.43745 -0.0512,0.13772 c -0.10449,0.26896 -0.30128,0.48581 -0.61659,0.65921 h -0.005 c -0.30984,0.17481 -0.63296,0.25712 -0.98091,0.25712 -0.31542,0 -0.60414,-0.0711 -0.87978,-0.22057 -0.2754,-0.1574 -0.49887,-0.36833 -0.68117,-0.63608 -0.14148,-0.2252 -0.20327,-0.49906 -0.2449,-0.78716 h 5.27868 l 0.0185,-0.13772 c 0.008,-0.0626 0.0179,-0.13857 0.0268,-0.22542 0.008,-0.0982 0.0136,-0.20222 0.0136,-0.30951 0,-0.62123 -0.14918,-1.20789 -0.44234,-1.74983 -0.29282,-0.54129 -0.70886,-0.97911 -1.23925,-1.30749 -0.53063,-0.34176 -1.16441,-0.51177 -1.8875,-0.51177 z m 21.36945,0 c -0.50973,0 -0.99737,0.0756 -1.46468,0.22543 h -0.005 c -0.45864,0.14987 -0.91508,0.37724 -1.36841,0.68239 l -0.11467,0.078 0.61657,1.22949 0.14747,-0.0926 c 0.36763,-0.23393 0.71236,-0.41561 1.03209,-0.53859 h 0.005 c 0.31269,-0.12831 0.64392,-0.19375 0.9992,-0.19375 0.50136,0 0.86055,0.12471 1.10521,0.35459 0.24661,0.23165 0.36799,0.5445 0.36799,0.98093 v 0.21688 c -0.2027,-0.0631 -0.40725,-0.12316 -0.64948,-0.15602 -0.31331,-0.0436 -0.61895,-0.0644 -0.92486,-0.0644 -0.57898,0 -1.0986,0.0867 -1.54755,0.27537 -0.44659,0.1793 -0.80867,0.44622 -1.07352,0.79328 -0.25927,0.34258 -0.39115,0.75547 -0.39115,1.21121 0,0.41865 0.11132,0.80157 0.3229,1.14177 0.21073,0.33901 0.50385,0.61123 0.87491,0.81033 0.37358,0.19135 0.7969,0.28513 1.26118,0.28513 0.48336,0 0.96293,-0.10403 1.43299,-0.31681 0.36894,-0.16715 0.6483,-0.43626 0.91635,-0.71407 l 0.008,0.10114 c 0.0301,0.23133 0.14165,0.44139 0.31805,0.60805 0.19073,0.18013 0.46336,0.26199 0.78717,0.26199 0.0758,0 0.16354,-0.005 0.26807,-0.0137 0.11005,-0.008 0.23077,-0.0283 0.36312,-0.0547 l 0.12916,-0.028 v -1.40498 l -0.15226,-0.008 c -0.109,-0.007 -0.15156,-0.0362 -0.17424,-0.0609 -0.0154,-0.0236 -0.0414,-0.0991 -0.0414,-0.23884 v -2.49189 c 0,-0.90038 -0.27749,-1.62138 -0.83348,-2.12268 -0.54495,-0.50865 -1.29274,-0.7555 -2.2153,-0.7555 z m 15.69961,0 c -0.50973,0 -1.00233,0.0756 -1.46955,0.22543 -0.45864,0.14987 -0.91386,0.37724 -1.36721,0.68239 l -0.11582,0.078 0.61293,1.22949 0.15226,-0.0926 c 0.3675,-0.23386 0.71101,-0.41556 1.03088,-0.53859 h 0.005 c 0.31271,-0.12831 0.64394,-0.19375 0.9992,-0.19375 0.50137,0 0.85691,0.12471 1.10155,0.35459 0.24662,0.23167 0.37287,0.5445 0.37287,0.98093 v 0.21688 c -0.20348,-0.0636 -0.40602,-0.123 -0.64947,-0.15602 -0.3133,-0.0436 -0.62505,-0.0644 -0.93097,-0.0644 -0.57895,0 -1.0937,0.0867 -1.54265,0.27537 -0.44659,0.1793 -0.80747,0.44622 -1.07231,0.79328 -0.25927,0.34258 -0.39239,0.75547 -0.39239,1.21121 0,0.41832 0.10658,0.80147 0.31805,1.14177 0.21091,0.33928 0.50887,0.6113 0.87979,0.81033 0.37358,0.19135 0.79812,0.28513 1.2624,0.28513 0.48335,0 0.96172,-0.10403 1.43177,-0.31681 0.36893,-0.16715 0.64829,-0.43626 0.91635,-0.71407 l 0.0104,0.10114 c 0.0301,0.23135 0.14165,0.44139 0.31802,0.60805 0.19106,0.18042 0.46336,0.26199 0.78719,0.26199 0.0758,0 0.16235,-0.005 0.26686,-0.0137 0.11004,-0.008 0.232,-0.0283 0.36433,-0.0547 l 0.12917,-0.028 v -1.40498 l -0.15225,-0.008 c -0.10901,-0.007 -0.15277,-0.0362 -0.17546,-0.0609 -0.0154,-0.0236 -0.0464,-0.0991 -0.0464,-0.23884 v -2.49189 c 0,-0.89884 -0.27492,-1.61681 -0.82862,-2.11782 -0.54486,-0.50852 -1.29259,-0.76036 -2.21528,-0.76036 z m -66.86224,0.05 -0.0103,10e-4 c -0.450218,0.0275 -0.875424,0.19566 -1.270932,0.49228 -0.270726,0.19739 -0.456599,0.49954 -0.654362,0.78717 v -1.21608 h -1.620644 v 7.00047 h 1.726659 v -4.20029 c 0.166798,-0.39398 0.428047,-0.6972 0.811545,-0.91634 0.401171,-0.22468 0.858215,-0.34158 1.380592,-0.34971 l 0.157218,-0.005 v -1.55119 l -0.129162,-0.028 c -0.05508,-0.0104 -0.115648,-0.0154 -0.18399,-0.0154 z m 1.160043,0.0647 v 0.162 4.08454 c 0,0.91542 0.178106,1.62805 0.566617,2.12755 0.388596,0.49965 0.979917,0.75062 1.713264,0.75062 0.593596,0 1.143756,-0.12727 1.64379,-0.38626 0.386014,-0.20681 0.670118,-0.549 0.944369,-0.89808 l 0.0103,0.32171 0.0051,0.005 c 0.02976,0.25756 0.146783,0.48603 0.344854,0.65436 h 0.0051 v 0.005 c 0.200585,0.16047 0.453212,0.23884 0.737213,0.23884 0.09136,0 0.187909,-0.005 0.285131,-0.0136 0.100766,-0.008 0.22055,-0.0287 0.367999,-0.0547 l 0.133952,-0.0231 v -1.40984 l -0.152256,-0.008 c -0.11154,-0.007 -0.162009,-0.036 -0.183992,-0.0609 -0.01745,-0.02 -0.04636,-0.0963 -0.04636,-0.23883 v -5.25452 H 96.47791 v 4.28194 c -0.119583,0.27886 -0.273139,0.52376 -0.465496,0.7238 -0.190868,0.19884 -0.404352,0.34399 -0.639718,0.446 v 0.005 c -0.22746,0.10194 -0.458856,0.14747 -0.700671,0.14747 -0.379222,0 -0.635765,-0.12181 -0.828601,-0.38139 -0.18406,-0.26691 -0.290007,-0.68242 -0.290007,-1.25755 v -3.96519 z m 28.618517,1.23925 h 0.001 c 0.33203,1.8e-4 0.62412,0.0749 0.88831,0.2303 l 0.005,0.005 c 0.27421,0.14883 0.49371,0.35916 0.66776,0.63607 h 0.003 v 0.003 c 0.14661,0.21674 0.20686,0.48273 0.2498,0.76038 h -3.60688 c 0.0418,-0.27883 0.0998,-0.54717 0.24006,-0.76402 0.17441,-0.27745 0.39193,-0.48739 0.65802,-0.63608 h 0.005 c 0.27431,-0.1567 0.56537,-0.23498 0.88832,-0.23519 z m -8.15078,0.16576 c 0.22898,0 0.45821,0.0573 0.69455,0.17547 h 0.005 c 0.24599,0.11906 0.46289,0.27998 0.65436,0.4874 v 0.005 h 0.005 c 0.19455,0.19457 0.32829,0.41372 0.41429,0.65922 v 1.67671 c -0.0457,0.16218 -0.12164,0.31202 -0.23518,0.45574 h -0.005 v 0.005 c -0.10774,0.14609 -0.23985,0.27157 -0.40456,0.38139 h -0.005 c -0.15858,0.11097 -0.32981,0.19992 -0.51178,0.26322 -0.17144,0.0623 -0.33901,0.0913 -0.50691,0.0913 -0.27682,0 -0.53053,-0.0507 -0.76403,-0.15105 h -0.005 c -0.22594,-0.1104 -0.432,-0.25844 -0.61292,-0.44722 -0.17308,-0.19779 -0.30485,-0.41787 -0.39969,-0.66287 -0.0953,-0.25414 -0.14251,-0.5216 -0.14251,-0.81033 0,-0.28147 0.045,-0.55115 0.13275,-0.80667 0.0875,-0.25446 0.20778,-0.47942 0.36436,-0.67629 l 0.005,-0.005 c 0.16543,-0.19559 0.35632,-0.35314 0.57514,-0.47036 v 0.005 c 0.22358,-0.1156 0.46674,-0.17545 0.74208,-0.17545 z m 29.48368,2.37615 c 0.24478,0 0.49109,0.025 0.74573,0.0743 h 0.005 0.005 c 0.21787,0.0351 0.41953,0.0951 0.6178,0.16578 v 0.64461 c 0,0.047 -0.0176,0.12557 -0.0694,0.22176 -0.0522,0.0972 -0.12728,0.19625 -0.22176,0.29854 -0.15226,0.16766 -0.3574,0.30715 -0.62147,0.41919 -0.26179,0.11108 -0.5343,0.16577 -0.82007,0.16577 -0.27658,0 -0.49615,-0.0486 -0.67141,-0.1425 h -0.005 c -0.17134,-0.0976 -0.30069,-0.22576 -0.39603,-0.37774 -0.0894,-0.1567 -0.13394,-0.31026 -0.13394,-0.47888 0,-0.31075 0.12145,-0.52796 0.40089,-0.7092 0.29142,-0.18406 0.67509,-0.28148 1.16492,-0.28148 z m 15.6996,0 c 0.24478,0 0.49231,0.025 0.74696,0.0743 h 0.005 c 0.21807,0.0353 0.42301,0.0949 0.62145,0.16578 v 0.64461 c 0,0.047 -0.0176,0.12557 -0.0694,0.22176 -0.0522,0.097 -0.12609,0.19625 -0.22053,0.29854 -0.15209,0.16732 -0.35846,0.3071 -0.62268,0.41919 -0.26195,0.1112 -0.53308,0.16577 -0.81885,0.16577 -0.2766,0 -0.49737,-0.0486 -0.67264,-0.1425 h -0.005 c -0.17133,-0.0976 -0.3007,-0.22576 -0.39601,-0.37774 -0.0898,-0.15721 -0.13396,-0.31093 -0.13396,-0.47888 0,-0.31075 0.12146,-0.52796 0.40089,-0.7092 0.2909,-0.18266 0.67694,-0.28148 1.16493,-0.28148 z" />
      <path
         d="m 82.670014,151.30335 q -0.208557,-0.23636 -0.556147,-0.38235 -0.34759,-0.14593 -0.792505,-0.14593 -0.653471,0 -0.952391,0.25026 -0.298935,0.24333 -0.298935,0.66739 0,0.22244 0.07647,0.36844 0.08348,0.13908 0.250265,0.24331 0.166798,0.10414 0.424059,0.18073 0.264174,0.0765 0.618709,0.15295 0.396261,0.0834 0.709088,0.18769 0.319792,0.10438 0.542241,0.26418 0.222465,0.15293 0.340643,0.37539 0.118213,0.22247 0.118213,0.55615 0,0.34065 -0.132069,0.59091 -0.13207,0.25026 -0.368444,0.4171 -0.236357,0.16679 -0.563094,0.25026 -0.326735,0.0765 -0.716034,0.0765 -1.147056,0 -1.981269,-0.71603 l 0.243304,-0.39624 q 0.132069,0.13908 0.312844,0.26417 0.187687,0.12505 0.410153,0.22245 0.22941,0.0904 0.486621,0.14592 0.257211,0.0486 0.542238,0.0486 0.59091,0 0.917647,-0.20855 0.333681,-0.2155 0.333681,-0.64653 0,-0.22942 -0.09734,-0.38235 -0.09033,-0.15996 -0.278065,-0.27113 -0.187703,-0.11821 -0.465785,-0.20161 -0.278065,-0.0834 -0.64651,-0.16679 -0.389298,-0.0904 -0.681269,-0.18771 -0.291992,-0.0973 -0.493586,-0.24331 -0.201612,-0.14592 -0.305882,-0.34758 -0.09734,-0.20858 -0.09734,-0.5075 0,-0.34062 0.125055,-0.60479 0.132069,-0.27113 0.368444,-0.44492 0.236358,-0.18074 0.556148,-0.27112 0.319789,-0.0973 0.709087,-0.0973 0.493568,0 0.87592,0.15293 0.389298,0.14593 0.702143,0.41712 z m 4.650774,3.58018 v 0.43102 h -3.316013 v -4.93579 h 3.253435 v 0.43102 h -2.766813 v 1.77966 h 2.412276 v 0.41015 h -2.412276 v 1.88394 z m 4.379639,-0.29197 q -0.688235,0.75775 -1.58501,0.75775 -0.500531,0 -0.924591,-0.21551 -0.417115,-0.21548 -0.729943,-0.57004 -0.305882,-0.35456 -0.479676,-0.79947 -0.173796,-0.45186 -0.173796,-0.92459 0,-0.49356 0.166798,-0.94544 0.173795,-0.45186 0.479677,-0.79251 0.305882,-0.34759 0.722997,-0.54918 0.417098,-0.20857 0.910683,-0.20857 0.361498,0 0.660418,0.0834 0.298936,0.0765 0.528348,0.22245 0.236357,0.13908 0.403206,0.34064 0.173778,0.19465 0.291974,0.43101 l -0.375407,0.25026 q -0.243303,-0.45882 -0.632618,-0.67432 -0.389298,-0.21551 -0.882866,-0.21551 -0.41017,0 -0.743852,0.1738 -0.326735,0.17378 -0.563092,0.46577 -0.229412,0.28502 -0.354553,0.66042 -0.125056,0.36845 -0.125056,0.76471 0,0.41711 0.139084,0.7925 0.145927,0.37541 0.396261,0.66042 0.250265,0.27808 0.583947,0.44491 0.340645,0.16679 0.736888,0.16679 0.42406,0 0.806413,-0.19466 0.389298,-0.20161 0.743851,-0.63262 v -0.8203 h -1.098386 v -0.37541 h 1.508538 v 2.42619 h -0.410152 z m 3.413338,0.31977 q 0.465769,0 0.771651,-0.17377 0.312827,-0.18074 0.493568,-0.46578 0.187704,-0.29196 0.257228,-0.66041 0.07647,-0.36846 0.07647,-0.74385 v -2.48875 h 0.486623 v 2.48875 q 0,0.50052 -0.111193,0.95239 -0.111204,0.44492 -0.361499,0.78556 -0.243302,0.34064 -0.639563,0.54223 -0.396244,0.20162 -0.966301,0.20162 -0.583946,0 -0.987152,-0.20856 -0.396262,-0.2155 -0.639564,-0.56311 -0.24332,-0.34758 -0.34759,-0.7925 -0.10418,-0.44491 -0.10418,-0.91763 v -2.48875 h 0.47966 v 2.48875 q 0,0.3893 0.07647,0.75774 0.07647,0.36844 0.257227,0.65348 0.187687,0.28502 0.493569,0.45882 0.305882,0.17377 0.764705,0.17377 z m 3.246489,0.40322 v -4.93579 h 2.085536 q 0.31979,0 0.58395,0.13908 0.27112,0.13207 0.46577,0.35453 0.19467,0.2155 0.29894,0.49359 0.1112,0.27806 0.1112,0.5631 0,0.27111 -0.0835,0.52138 -0.0765,0.24332 -0.22245,0.44491 -0.13908,0.19467 -0.34064,0.33371 -0.20161,0.13206 -0.45188,0.18074 l 1.20962,1.90478 h -0.54918 l -1.16097,-1.82138 h -1.459869 v 1.82138 z m 0.486623,-2.2524 h 1.612823 q 0.21551,0 0.3893,-0.0904 0.18074,-0.0973 0.30588,-0.2572 0.12506,-0.15996 0.19465,-0.3615 0.0695,-0.20162 0.0695,-0.42406 0,-0.22246 -0.0835,-0.42407 -0.0765,-0.20856 -0.2155,-0.36149 -0.13207,-0.15294 -0.31977,-0.2433 -0.18074,-0.0904 -0.38235,-0.0904 h -1.571122 z m 4.052903,2.2524 v -4.93579 h 0.48664 v 4.93579 z m 1.72404,0 v -4.93579 h 1.67539 q 0.59091,0 1.02888,0.19466 0.44491,0.19465 0.73689,0.52833 0.29893,0.33368 0.44491,0.78557 0.15294,0.44491 0.15294,0.95238 0,0.56309 -0.1668,1.02191 -0.1668,0.45189 -0.47967,0.77862 -0.30589,0.31977 -0.74384,0.50053 -0.43102,0.17379 -0.97326,0.17379 z m 3.55239,-2.47485 q 0,-0.44492 -0.12506,-0.81336 -0.12505,-0.3754 -0.36844,-0.64652 -0.23637,-0.27112 -0.58396,-0.41711 -0.3476,-0.15293 -0.79946,-0.15293 h -1.18876 v 4.07375 h 1.18876 q 0.45883,0 0.80642,-0.15294 0.35453,-0.15996 0.59089,-0.431 0.23637,-0.27809 0.35455,-0.64653 0.12506,-0.37539 0.12506,-0.81336 z m 2.77378,-2.46094 h 0.41015 l 2.05079,4.93579 h -0.51444 l -0.63956,-1.54331 h -2.21764 l -0.63261,1.54331 h -0.52138 z m 1.1957,3.01013 -0.99411,-2.44007 -1.00801,2.44007 z m 1.97433,1.92566 v -4.93579 h 1.67539 q 0.59089,0 1.02885,0.19466 0.44493,0.19465 0.7369,0.52833 0.29893,0.33368 0.44491,0.78557 0.15295,0.44491 0.15295,0.95238 0,0.56309 -0.16681,1.02191 -0.1668,0.45189 -0.47967,0.77862 -0.30589,0.31977 -0.74383,0.50053 -0.43102,0.17379 -0.97326,0.17379 z m 3.55237,-2.47485 q 0,-0.44492 -0.12506,-0.81336 -0.12505,-0.3754 -0.36844,-0.64652 -0.23637,-0.27112 -0.58397,-0.41711 -0.34759,-0.15293 -0.79944,-0.15293 h -1.18877 v 4.07375 h 1.18877 q 0.45882,0 0.80641,-0.15294 0.35453,-0.15996 0.59091,-0.431 0.23635,-0.27809 0.35453,-0.64653 0.12506,-0.37539 0.12506,-0.81336 z m 3.19088,2.47485 v -4.93579 h 2.04383 q 0.31978,0 0.58396,0.13908 0.27112,0.13207 0.46577,0.35453 0.19464,0.2155 0.30588,0.49359 0.11121,0.27806 0.11121,0.5631 0,0.30587 -0.10438,0.59091 -0.10415,0.27806 -0.29198,0.49356 -0.18769,0.2155 -0.45187,0.34761 -0.25721,0.13206 -0.577,0.13206 h -1.59891 v 1.82139 z m 0.48663,-2.2524 h 1.57805 q 0.2155,0 0.38932,-0.0904 0.18074,-0.0973 0.30587,-0.25026 0.12506,-0.15996 0.19465,-0.3615 0.0694,-0.20856 0.0694,-0.431 0,-0.22941 -0.0836,-0.43101 -0.0765,-0.20857 -0.2155,-0.3615 -0.13206,-0.15293 -0.31979,-0.23635 -0.18074,-0.0904 -0.38233,-0.0904 h -1.53635 z m 3.83738,2.2524 v -4.93579 h 2.08555 q 0.31978,0 0.58396,0.13908 0.27112,0.13207 0.46577,0.35453 0.19464,0.2155 0.29892,0.49359 0.1112,0.27806 0.1112,0.5631 0,0.27111 -0.0834,0.52138 -0.0765,0.24332 -0.22247,0.44491 -0.13908,0.19467 -0.34065,0.33371 -0.20159,0.13206 -0.45185,0.18074 l 1.20962,1.90478 h -0.54921 l -1.16094,-1.82138 h -1.45989 v 1.82138 z m 0.48665,-2.2524 h 1.61281 q 0.2155,0 0.38929,-0.0904 0.18074,-0.0973 0.30589,-0.2572 0.12522,-0.15996 0.19466,-0.3615 0.0694,-0.20162 0.0694,-0.42406 0,-0.22246 -0.0834,-0.42407 -0.0765,-0.20856 -0.21549,-0.36149 -0.13207,-0.15294 -0.31979,-0.2433 -0.18075,-0.0904 -0.38235,-0.0904 h -1.5711 z m 4.0529,2.2524 v -4.93579 h 0.48662 v 4.93579 z m 1.70318,-4.93579 1.76578,4.33098 1.75879,-4.33098 h 0.50748 l -2.05774,4.93579 h -0.42406 l -2.05773,-4.93579 z m 5.84647,0 h 0.41016 l 2.05079,4.93579 h -0.51444 l -0.63957,-1.54331 h -2.21762 l -0.63262,1.54331 h -0.52138 z m 1.19572,3.01013 -0.99411,-2.44007 -1.00802,2.44007 z m 1.97432,1.92566 v -4.93579 h 1.67538 q 0.59091,0 1.02887,0.19466 0.44491,0.19465 0.73691,0.52833 0.29891,0.33368 0.44491,0.78557 0.15294,0.44491 0.15294,0.95238 0,0.56309 -0.16679,1.02191 -0.16681,0.45189 -0.47969,0.77862 -0.30588,0.31977 -0.74385,0.50053 -0.431,0.17379 -0.97324,0.17379 z m 3.55237,-2.47485 q 0,-0.44492 -0.12523,-0.81336 -0.12505,-0.3754 -0.36844,-0.64652 -0.23636,-0.27112 -0.58395,-0.41711 -0.34759,-0.15293 -0.79947,-0.15293 h -1.18874 v 4.07375 h 1.18874 q 0.45883,0 0.80642,-0.15294 0.35455,-0.15996 0.59091,-0.431 0.23635,-0.27809 0.35453,-0.64653 0.12523,-0.37539 0.12523,-0.81336 z m 2.77378,-2.46094 h 0.41016 l 2.05078,4.93579 h -0.51444 l -0.63956,-1.54331 h -2.21762 l -0.63263,1.54331 h -0.52139 z m 1.1957,3.01013 -0.9941,-2.44007 -1.008,2.44007 z"
         id="path106"
         style="font-size:2.94817px;line-height:1.25;font-family:Raleway;-inkscape-font-specification:Raleway;display:inline;fill:#ffffff;fill-opacity:1;stroke-width:0.270006"
         aria-label="SEGURIDAD PRIVADA" />
    </g>
  </g>
</svg>
